<?xml version="1.0" standalone="no"?>
<!DOCTYPE svg PUBLIC "-//W3C//DTD SVG 20010904//EN"
 "http://www.w3.org/TR/2001/REC-SVG-20010904/DTD/svg10.dtd">
<svg version="1.0" xmlns="http://www.w3.org/2000/svg"
 width="247.000000pt" height="247.000000pt" viewBox="0 0 247.000000 247.000000"
 preserveAspectRatio="xMidYMid meet">
<metadata>
Created by potrace 1.14, written by Peter Selinger 2001-2017
</metadata>
<g transform="translate(0.000000,247.000000) scale(0.100000,-0.100000)"
fill="#000000" stroke="none">
<path d="M0 2125 l0 -345 345 0 345 0 0 345 0 345 -345 0 -345 0 0 -345z"/>
<path d="M990 1925 l0 -345 345 0 345 0 0 345 0 345 -345 0 -345 0 0 -345z"/>
<path d="M1780 1925 l0 -345 345 0 345 0 0 345 0 345 -345 0 -345 0 0 -345z"/>
<path d="M200 1135 l0 -345 345 0 345 0 0 345 0 345 -345 0 -345 0 0 -345z"/>
<path d="M990 1135 l0 -345 345 0 345 0 0 345 0 345 -345 0 -345 0 0 -345z"/>
<path d="M1780 1135 l0 -345 345 0 345 0 0 345 0 345 -345 0 -345 0 0 -345z"/>
<path d="M200 345 l0 -345 345 0 345 0 0 345 0 345 -345 0 -345 0 0 -345z"/>
<path d="M990 345 l0 -345 345 0 345 0 0 345 0 345 -345 0 -345 0 0 -345z"/>
<path d="M1780 345 l0 -345 345 0 345 0 0 345 0 345 -345 0 -345 0 0 -345z"/>
</g>
</svg>
