<?xml version="1.0" standalone="no"?>
<!DOCTYPE svg PUBLIC "-//W3C//DTD SVG 20010904//EN"
 "http://www.w3.org/TR/2001/REC-SVG-20010904/DTD/svg10.dtd">
<svg version="1.0" xmlns="http://www.w3.org/2000/svg"
 width="1222.000000pt" height="1222.000000pt" viewBox="0 0 1222.000000 1222.000000"
 preserveAspectRatio="xMidYMid meet">
<metadata>
Created by potrace 1.14, written by Peter Selinger 2001-2017
</metadata>
<g transform="translate(0.000000,1222.000000) scale(0.100000,-0.100000)"
fill="#000000" stroke="none">
<path d="M6695 12209 c-361 -37 -735 -118 -1025 -220 -741 -263 -1369 -686
-1879 -1265 -608 -691 -973 -1564 -1061 -2539 -17 -183 -8 -753 14 -905 69
-486 197 -920 391 -1333 188 -402 496 -855 778 -1144 l51 -52 -34 -48 c-190
-267 -329 -426 -585 -671 -55 -53 -156 -150 -225 -217 -69 -66 -164 -156 -210
-199 -47 -44 -128 -120 -180 -170 -52 -50 -185 -177 -295 -281 -110 -105 -299
-285 -420 -401 -206 -196 -419 -399 -800 -760 -172 -163 -248 -257 -313 -389
-82 -166 -107 -281 -106 -485 1 -165 12 -233 59 -376 116 -347 370 -596 715
-702 150 -46 173 -50 323 -47 393 8 714 181 944 511 26 38 140 264 253 504 46
96 110 231 142 300 33 69 113 238 178 375 65 138 146 309 180 380 34 72 96
202 137 290 42 88 106 225 144 304 38 79 69 144 69 146 0 1 36 78 80 169 44
92 80 169 80 171 0 5 178 374 242 500 69 137 152 273 245 401 35 49 68 95 72
103 7 12 16 9 47 -15 162 -124 499 -304 782 -418 456 -184 846 -272 1363 -307
264 -17 689 13 996 72 164 31 448 104 543 139 47 17 111 40 142 51 195 66 520
221 748 357 138 82 440 291 480 332 3 3 30 25 60 50 242 197 497 468 747 795
28 35 189 285 232 359 304 517 506 1108 581 1699 67 525 43 1037 -71 1557
-174 792 -584 1544 -1154 2116 -355 356 -716 616 -1160 834 -487 239 -981 378
-1510 425 -183 16 -652 18 -790 4z"/>
</g>
</svg>
